<svg width="150" height="54" viewBox="0 0 150 54" fill="none" xmlns="http://www.w3.org/2000/svg">
<path d="M72.0683 31.4213C73.7834 33.2952 75.2749 35.3279 76.4312 37.5957C77.0702 38.8498 77.5628 40.1587 77.7686 41.5562C78.248 44.813 77.0956 47.3791 74.4085 49.2438C73.7286 49.7155 72.957 50.0562 72.2271 50.4563C72.2016 50.4563 72.1754 50.4563 72.15 50.4563C72.1292 49.226 72.0929 47.9958 72.0891 46.7655C72.0744 41.8538 72.0706 36.942 72.0629 32.0303C72.0629 31.8252 72.0706 31.6202 72.0752 31.4152L72.0683 31.4213Z" fill="url(#paint0_linear_7_560)"/>
<path d="M5.08752 30.1062C5.21317 29.5843 5.29334 29.0463 5.4714 28.5429C6.44188 25.7972 9.80348 24.6287 12.1345 26.2189C12.3865 26.3908 12.6109 26.6097 12.8205 26.8332C13.0179 27.0429 13.179 27.2873 13.4071 27.5817C13.4071 27.0838 13.4164 26.6652 13.404 26.2466C13.3963 25.9953 13.4958 25.9021 13.7432 25.9113C14.0893 25.9237 14.437 25.9306 14.7823 25.909C15.0875 25.8905 15.1847 26.01 15.1824 26.3075C15.1716 27.591 15.1785 28.8752 15.1785 30.1586C15.1785 31.9046 15.1793 33.6505 15.1785 35.3964C15.1785 35.9175 15.1762 35.9175 14.642 35.9183C14.3599 35.9191 14.077 35.9075 13.7949 35.9206C13.5466 35.9322 13.4495 35.8335 13.4572 35.5845C13.4696 35.1814 13.4603 34.7767 13.4603 34.2779C13.1998 34.6009 13.0233 34.8514 12.8151 35.0719C11.0414 36.9512 7.77696 36.7184 6.17671 34.6048C5.61323 33.8602 5.30952 33.0107 5.1569 32.0996C5.13994 31.9994 5.11142 31.9015 5.08752 31.8028C5.08752 31.237 5.08752 30.6712 5.08752 30.1062ZM6.91902 30.884C6.95602 31.2278 6.97221 31.5754 7.03542 31.9146C7.26898 33.171 7.9003 34.1168 9.19761 34.4498C9.63698 34.5624 10.1149 34.5863 10.5697 34.5601C11.8115 34.4884 12.7157 33.8771 13.1581 32.7008C13.606 31.5122 13.5898 30.3035 13.0718 29.1365C12.0327 26.7939 8.9864 26.9018 7.81859 28.2015C7.13177 28.9669 6.95063 29.895 6.91902 30.884Z" fill="white"/>
<path d="M141.91 35.8876C141.385 35.8968 140.86 35.9184 140.336 35.9045C140.245 35.9022 140.128 35.7642 140.081 35.6625C140.037 35.5669 140.068 35.4358 140.068 35.3202C140.068 30.0755 140.068 24.83 140.068 19.5852C140.068 18.9924 140.069 18.9901 140.68 18.9924C141.09 18.994 141.5 19.0017 141.91 19.0063C141.91 24.6334 141.91 30.2605 141.91 35.8876Z" fill="white"/>
<path d="M72.0753 31.4151C71.2705 30.5194 70.4265 29.6561 69.6687 28.7226C67.6561 26.2421 66.1059 23.5095 65.3806 20.3668C64.4594 16.3785 65.0777 12.5898 66.9423 8.98157C68.1263 6.68989 69.688 4.68032 71.5696 2.91897C71.6775 2.81799 71.7993 2.73243 71.9859 2.58289C71.9982 2.80874 72.0121 2.94209 72.0121 3.07622C72.036 11.4213 72.0591 19.7663 72.0807 28.1113C72.0838 29.2144 72.073 30.3175 72.0683 31.4213L72.0753 31.4151Z" fill="url(#paint1_linear_7_560)"/>
<path d="M103.235 27.5301C103.346 27.3806 103.454 27.2249 103.571 27.0784C105.579 24.5863 109.681 25.1775 111.004 28.1799C111.821 30.0338 111.812 31.9424 110.988 33.7893C109.663 36.7562 105.909 36.9204 104.271 35.4843C103.901 35.1591 103.597 34.7582 103.246 34.3743C103.241 34.5023 103.229 34.6357 103.229 34.7698C103.228 36.6198 103.221 38.4698 103.235 40.3198C103.238 40.6636 103.153 40.8116 102.788 40.78C102.457 40.7514 102.121 40.7676 101.787 40.7746C101.577 40.7792 101.476 40.696 101.489 40.4809C101.494 40.3915 101.488 40.3013 101.488 40.2111C101.488 35.6377 101.488 31.0636 101.488 26.4903C101.488 25.9137 101.489 25.9137 102.081 25.9129C102.337 25.9129 102.595 25.9222 102.852 25.9114C103.082 25.9021 103.173 25.9954 103.17 26.2274C103.164 26.6506 103.179 27.0738 103.186 27.497C103.187 27.5047 103.207 27.5108 103.235 27.5301ZM109.761 30.9996C109.65 30.4655 109.581 29.848 109.39 29.2707C108.978 28.025 107.953 27.2888 106.709 27.2619C105.117 27.2272 104.061 27.8477 103.518 29.1304C103.225 29.8218 103.181 30.5479 103.211 31.2848C103.291 33.1703 104.427 34.4314 106.298 34.5956C107.793 34.7266 109.092 34.0213 109.523 32.4488C109.643 32.0079 109.675 31.5423 109.761 30.9996Z" fill="white"/>
<path d="M134.658 27.5664C134.658 27.1062 134.679 26.72 134.652 26.3369C134.628 25.9869 134.769 25.8844 135.098 25.9083C135.417 25.9314 135.741 25.9284 136.061 25.9091C136.357 25.8906 136.438 26.0216 136.434 26.2953C136.423 27.0276 136.431 27.7599 136.431 28.4914C136.431 30.8031 136.422 33.1156 136.438 35.4273C136.441 35.8158 136.331 35.9646 135.937 35.9237C135.645 35.8937 135.347 35.906 135.052 35.9207C134.796 35.933 134.715 35.8243 134.723 35.58C134.737 35.1629 134.727 34.7451 134.727 34.285C134.425 34.6388 134.185 34.9733 133.893 35.2531C132.271 36.8064 129.424 36.6907 127.794 35.0196C125.864 33.0393 125.845 28.9408 127.707 26.8934C129.288 25.156 133.031 24.8484 134.526 27.4222C134.544 27.4538 134.576 27.477 134.658 27.5664ZM128.174 30.7831C128.212 31.1646 128.226 31.5123 128.284 31.8522C128.5 33.1087 129.105 34.0768 130.397 34.4299C130.857 34.5555 131.364 34.5864 131.843 34.5578C133.101 34.4831 134 33.8517 134.437 32.6531C134.844 31.5385 134.831 30.4084 134.404 29.3C133.902 27.9996 132.645 27.2025 131.286 27.2881C129.651 27.3922 128.681 28.1761 128.325 29.7108C128.242 30.0708 128.22 30.4454 128.174 30.7831Z" fill="white"/>
<path d="M63.0403 27.6072C63.0403 27.0876 63.0487 26.6567 63.0372 26.2259C63.0302 25.9923 63.1212 25.9036 63.3517 25.9113C63.6854 25.9221 64.0208 25.9337 64.3522 25.9075C64.696 25.8805 64.7893 26.0123 64.787 26.3469C64.7739 28.5291 64.7808 30.7121 64.7808 32.8943C64.7808 33.7546 64.7638 34.6148 64.7885 35.4743C64.7985 35.8389 64.6667 35.9484 64.3237 35.9229C64.0046 35.899 63.6824 35.9106 63.3609 35.9191C63.1459 35.9245 63.0595 35.8297 63.0618 35.6208C63.0672 35.2138 63.0634 34.8068 63.0634 34.2918C62.8838 34.5223 62.7705 34.6696 62.6548 34.8152C61.0106 36.8795 57.6652 36.8633 55.9362 34.779C54.9943 33.6436 54.6898 32.3023 54.6983 30.864C54.7045 29.8364 54.8972 28.8559 55.3496 27.9225C56.7803 24.9763 61.3221 24.6911 62.8714 27.3975C62.9007 27.4476 62.9447 27.4892 63.0403 27.6072ZM56.5421 30.8732C56.5853 31.2548 56.6053 31.641 56.6763 32.0171C56.9399 33.4193 57.7809 34.2811 59.1421 34.5239C59.4913 34.5863 59.8598 34.5902 60.2151 34.5624C61.4022 34.4699 62.2987 33.9087 62.7419 32.7833C63.233 31.5353 63.2229 30.2627 62.644 29.0425C61.7121 27.0799 58.8515 26.656 57.3978 28.2539C56.7271 28.9924 56.5676 29.9097 56.5421 30.8732Z" fill="white"/>
<path d="M96.5168 34.4014C95.9788 35.0735 95.4107 35.637 94.6506 35.9823C92.443 36.986 89.7088 35.9592 88.7191 33.6999C87.912 31.8576 87.9136 29.9644 88.7222 28.1252C89.9362 25.3641 92.9926 25.1321 94.6722 25.9153C95.0376 26.0856 95.3752 26.3415 95.6758 26.6136C95.9665 26.8757 96.1931 27.2095 96.4937 27.5664C96.4937 27.1324 96.5184 26.7408 96.4868 26.3546C96.4567 25.9846 96.6078 25.8806 96.9477 25.9091C97.2029 25.9307 97.4611 25.9129 97.7178 25.9137C98.2327 25.9153 98.2343 25.9153 98.2343 26.4518C98.235 27.9934 98.2343 29.5351 98.2343 31.076C98.2343 32.5406 98.2242 34.0052 98.2412 35.469C98.2458 35.8243 98.134 35.9523 97.7818 35.923C97.4757 35.8976 97.1651 35.9076 96.8575 35.9207C96.6109 35.9307 96.5068 35.8367 96.513 35.5861C96.5245 35.1915 96.5168 34.796 96.5168 34.4014ZM89.9933 30.8632C90.0449 31.2826 90.0626 31.7096 90.1551 32.1189C90.6092 34.1269 92.184 34.8084 94.0055 34.5232C95.1787 34.3389 95.958 33.6336 96.3064 32.5067C96.6448 31.4098 96.6332 30.3005 96.1892 29.226C95.1817 26.7909 92.0483 26.8696 90.8597 28.2424C90.206 28.9963 90.0272 29.8982 89.9933 30.8632Z" fill="white"/>
<path d="M27.5048 26.0316C25.9015 27.5077 24.2989 28.9831 22.7033 30.4523C24.4739 32.2376 26.2307 34.0097 27.9874 35.7819C27.9735 35.8158 27.9604 35.8505 27.9465 35.8844C27.8294 35.8952 27.7122 35.9144 27.5958 35.916C27.2489 35.9206 26.8951 35.8736 26.5567 35.9268C25.836 36.0409 25.3719 35.704 24.9033 35.2053C23.5759 33.7923 22.2054 32.4202 20.851 31.0335C20.7739 30.9541 20.6853 30.8855 20.5342 30.7522C20.5342 30.9657 20.5342 31.1013 20.5342 31.2362C20.5342 32.6361 20.5195 34.0359 20.5434 35.4357C20.5504 35.8374 20.4186 35.9576 20.0385 35.9237C19.7202 35.8952 19.3964 35.9114 19.0758 35.9183C18.8653 35.9229 18.7644 35.8389 18.7782 35.6246C18.7836 35.5483 18.7775 35.4704 18.7775 35.3934C18.7775 30.1024 18.7775 24.8114 18.7775 19.5204C18.7775 18.9931 18.779 18.9931 19.297 18.9923C19.6184 18.9923 19.9414 18.9723 20.259 19.0062C20.3584 19.017 20.4718 19.1604 20.5234 19.2698C20.5681 19.3646 20.535 19.4965 20.535 19.6121C20.535 23.0022 20.535 26.3931 20.535 29.7832C20.535 29.9351 20.535 30.0869 20.535 30.3482C20.7138 30.1956 20.8256 30.107 20.9296 30.0091C22.2848 28.7326 23.6422 27.4592 24.9873 26.1719C25.1916 25.9761 25.3966 25.9013 25.671 25.9082C26.2692 25.9229 26.8674 25.9129 27.4655 25.9129C27.4779 25.953 27.4917 25.9923 27.5048 26.0316Z" fill="white"/>
<path d="M39.3827 29.374C39.3411 30.5533 39.3827 31.7435 39.2393 32.9105C39.0034 34.8345 37.7878 35.9862 35.8661 36.2698C34.8101 36.4255 33.761 36.3916 32.7481 36.027C31.2095 35.4728 30.431 34.2903 30.3023 32.7309C30.1851 31.3141 30.2306 29.8835 30.2121 28.4582C30.2028 27.7514 30.2275 27.0445 30.2036 26.3384C30.192 25.9908 30.3177 25.8852 30.6484 25.9075C30.9937 25.9314 31.3429 25.9299 31.6882 25.9083C32.002 25.8883 32.0806 26.0208 32.0783 26.3137C32.0675 27.9194 32.0551 29.5258 32.0829 31.1315C32.0937 31.7296 32.1669 32.3363 32.2941 32.9213C32.5169 33.9427 33.2021 34.5054 34.2328 34.6202C34.6128 34.6626 35.0067 34.6657 35.3859 34.6202C36.4828 34.4877 37.1172 33.9411 37.3446 32.8527C37.4803 32.2052 37.525 31.5307 37.5381 30.8663C37.5658 29.4148 37.5466 27.9633 37.5466 26.5111C37.5466 25.9137 37.5473 25.9137 38.1632 25.9137C38.433 25.9137 38.7036 25.9283 38.9726 25.9106C39.2609 25.8913 39.3511 26.0093 39.3472 26.2899C39.3357 27.3174 39.3426 28.3457 39.3426 29.3732C39.3557 29.3724 39.3696 29.3732 39.3827 29.374Z" fill="white"/>
<path d="M44.5465 27.3058C44.6891 27.1501 44.7607 27.0792 44.824 27.0021C46.2438 25.2593 48.6827 25.3009 50.0394 25.9068C51.2095 26.4294 51.8301 27.3783 51.8786 28.6263C51.9426 30.2681 51.9033 31.9139 51.9071 33.5581C51.9087 34.2387 51.9017 34.9201 51.9095 35.6008C51.9118 35.8297 51.8277 35.9284 51.5942 35.9199C51.299 35.9091 51.003 35.9184 50.7077 35.9184C50.1126 35.9184 50.1111 35.9176 50.1111 35.3395C50.1103 33.5665 50.1142 31.7936 50.1072 30.0207C50.1057 29.7016 50.0911 29.3763 50.0332 29.0633C49.7758 27.6812 48.8739 26.9728 47.4633 27.0869C46.9861 27.1255 46.4874 27.2241 46.0557 27.4215C44.9365 27.9318 44.5711 28.9146 44.5696 30.0754C44.5673 31.8738 44.5596 33.6729 44.5765 35.4713C44.5796 35.8274 44.474 35.953 44.121 35.9238C43.8149 35.8983 43.5043 35.9037 43.1967 35.9222C42.9069 35.9392 42.8206 35.8205 42.8236 35.5414C42.8352 34.5008 42.8275 33.4602 42.8275 32.4195C42.8275 30.4023 42.8344 28.3858 42.8213 26.3685C42.819 26.0232 42.9115 25.8744 43.2738 25.9083C43.5536 25.9345 43.8404 25.9338 44.121 25.9083C44.4725 25.8767 44.575 26.0293 44.5511 26.3554C44.5303 26.6352 44.5465 26.9173 44.5465 27.3058Z" fill="white"/>
<path d="M85.7436 28.0966C85.5424 27.9941 85.4183 27.9347 85.2981 27.8685C84.3816 27.3636 83.4003 27.1454 82.3651 27.2926C80.7055 27.5285 79.6702 28.5668 79.3596 30.2496C78.9911 32.2422 80.0726 34.0482 81.9288 34.5215C83.048 34.8075 84.0902 34.557 85.0799 34.0166C85.3451 33.8717 85.5987 33.7075 85.9294 33.5086C85.9294 34.1924 85.9379 34.8013 85.9194 35.4103C85.9171 35.4951 85.7999 35.6069 85.7082 35.6539C83.9545 36.5565 80.9521 36.7677 79.1283 35.1598C78.2118 34.3512 77.6938 33.3298 77.5019 32.1396C77.2506 30.5787 77.4302 29.0771 78.3328 27.7474C79.5577 25.9437 81.3491 25.3571 83.4365 25.5937C84.1156 25.6708 84.7786 25.9121 85.4407 26.104C85.5602 26.1387 85.7228 26.2944 85.7282 26.4016C85.7591 26.9373 85.7436 27.4746 85.7436 28.0966Z" fill="white"/>
<path d="M122.955 27.3451C122.955 27.5818 122.955 27.7475 122.955 27.9132C122.955 30.4169 122.947 32.9198 122.963 35.4235C122.965 35.8042 122.872 35.9661 122.471 35.9245C122.166 35.8929 121.854 35.8998 121.547 35.923C121.217 35.9476 121.137 35.8066 121.139 35.4982C121.15 33.6243 121.144 31.7497 121.144 29.875C121.144 29.1558 121.134 28.4366 121.149 27.7182C121.154 27.4399 121.076 27.3228 120.78 27.3397C120.396 27.3621 120.01 27.3359 119.625 27.3482C119.398 27.3551 119.314 27.2804 119.305 27.0422C119.259 25.9121 119.253 25.9168 120.384 25.9114C121.248 25.9075 121.138 26.017 121.143 25.1552C121.148 24.1924 121.153 23.2296 121.139 22.2669C121.134 21.9701 121.227 21.846 121.532 21.8614C121.877 21.8791 122.226 21.8807 122.571 21.8606C122.885 21.8429 122.962 21.9817 122.958 22.2707C122.946 23.3491 122.964 24.4275 122.946 25.5059C122.941 25.8297 123.047 25.9383 123.364 25.9175C123.71 25.8952 124.057 25.9214 124.403 25.9106C124.64 25.9029 124.766 25.9738 124.752 26.2351C124.738 26.5041 124.739 26.7747 124.752 27.0437C124.763 27.2858 124.651 27.3528 124.427 27.3482C123.957 27.3382 123.485 27.3451 122.955 27.3451Z" fill="white"/>
<path d="M116.333 30.928C116.333 32.4542 116.326 33.9812 116.34 35.5075C116.343 35.8243 116.249 35.9453 115.927 35.923C115.583 35.8999 115.234 35.9068 114.889 35.9207C114.635 35.9307 114.549 35.822 114.552 35.58C114.56 34.9641 114.554 34.3482 114.554 33.733C114.554 31.2957 114.553 28.8583 114.554 26.4209C114.554 25.916 114.557 25.9152 115.068 25.9145C115.363 25.9137 115.659 25.9322 115.953 25.9098C116.265 25.8867 116.343 26.0162 116.34 26.3107C116.326 27.8485 116.333 29.3878 116.333 30.928Z" fill="white"/>
<path d="M116.717 21.1407C116.726 21.8499 116.171 22.4064 115.452 22.4111C114.743 22.4157 114.17 21.8599 114.157 21.1561C114.143 20.4678 114.717 19.8712 115.412 19.8511C116.112 19.8303 116.709 20.42 116.717 21.1407Z" fill="white"/>
<path d="M145.711 22.7864V20.1833H146.488C146.731 20.1833 146.925 20.2095 147.07 20.2621C147.22 20.3147 147.327 20.3977 147.392 20.5109C147.461 20.6201 147.495 20.7617 147.495 20.9357C147.495 21.0934 147.451 21.229 147.362 21.3422C147.273 21.4555 147.139 21.5465 146.961 21.6153L147.689 22.7864H147.204L146.579 21.7245H146.13V22.7864H145.711ZM146.13 21.4029H146.488C146.678 21.4029 146.82 21.3645 146.913 21.2876C147.01 21.2108 147.058 21.0975 147.058 20.9478C147.058 20.7779 147.006 20.6646 146.9 20.608C146.799 20.5473 146.654 20.517 146.464 20.517H146.13V21.4029ZM146.5 24C146.156 24 145.833 23.9353 145.529 23.8058C145.226 23.6764 144.959 23.4984 144.728 23.2718C144.502 23.0413 144.324 22.7743 144.194 22.4709C144.065 22.1675 144 21.8439 144 21.5C144 21.1521 144.065 20.8285 144.194 20.5291C144.324 20.2257 144.502 19.9608 144.728 19.7342C144.959 19.5036 145.226 19.3236 145.529 19.1942C145.833 19.0647 146.156 19 146.5 19C146.848 19 147.172 19.0647 147.471 19.1942C147.774 19.3236 148.039 19.5036 148.266 19.7342C148.496 19.9608 148.676 20.2257 148.806 20.5291C148.935 20.8285 149 21.1521 149 21.5C149 21.8439 148.935 22.1675 148.806 22.4709C148.676 22.7743 148.496 23.0413 148.266 23.2718C148.039 23.4984 147.774 23.6764 147.471 23.8058C147.172 23.9353 146.848 24 146.5 24ZM146.5 23.6602C146.799 23.6602 147.078 23.6056 147.337 23.4964C147.6 23.3831 147.831 23.2273 148.029 23.0291C148.227 22.8309 148.381 22.6023 148.49 22.3434C148.604 22.0805 148.66 21.7994 148.66 21.5C148.66 21.2006 148.604 20.9215 148.49 20.6626C148.381 20.3997 148.227 20.1691 148.029 19.9709C147.831 19.7727 147.6 19.6189 147.337 19.5097C147.078 19.3964 146.799 19.3398 146.5 19.3398C146.201 19.3398 145.919 19.3964 145.657 19.5097C145.398 19.6189 145.169 19.7727 144.971 19.9709C144.773 20.1691 144.617 20.3997 144.504 20.6626C144.394 20.9215 144.34 21.2006 144.34 21.5C144.34 21.7994 144.394 22.0805 144.504 22.3434C144.617 22.6023 144.773 22.8309 144.971 23.0291C145.169 23.2273 145.398 23.3831 145.657 23.4964C145.919 23.6056 146.201 23.6602 146.5 23.6602Z" fill="white"/>
<defs>
<linearGradient id="paint0_linear_7_560" x1="73.075" y1="50.4563" x2="73.075" y2="31.4167" gradientUnits="userSpaceOnUse">
<stop stop-color="#00B6C8"/>
<stop offset="1" stop-color="#305C8D"/>
</linearGradient>
<linearGradient id="paint1_linear_7_560" x1="68.5201" y1="2.58289" x2="68.5201" y2="31.4213" gradientUnits="userSpaceOnUse">
<stop stop-color="#00B6C8"/>
<stop offset="1" stop-color="#305C8D"/>
</linearGradient>
</defs>
</svg>
