<svg width="32" height="32" viewBox="0 0 32 32" fill="none" xmlns="http://www.w3.org/2000/svg">
<g clip-path="url(#clip0_287_5)">
<rect width="32" height="32" rx="4" fill="white"/>
<path d="M6.55652 21.3291L7.9621 20.5891C8.04588 20.5472 8.14362 20.5844 8.1855 20.6636C9.78191 23.3258 12.6955 25.1084 16.0186 25.0991C21.0359 25.0851 25.1037 20.994 25.0944 15.9767C25.0805 10.9594 20.9894 6.89162 15.9721 6.90559C10.9548 6.91955 6.88697 11.0106 6.90093 16.0279C6.90093 16.6097 6.96144 17.1775 7.06383 17.7267C7.0871 17.8198 7.02194 17.9036 6.93351 17.9269L5.40226 18.3085C5.31383 18.3318 5.2254 18.2806 5.20213 18.1922C5.0625 17.494 4.98338 16.7726 4.97872 16.0326C4.96011 9.95878 9.89362 5.002 15.9674 4.98338C22.0412 4.96476 26.998 9.89827 27.0166 15.9721C27.0352 22.0459 22.1017 27.0027 16.0279 27.0213C11.9648 27.0306 8.40891 24.8338 6.4867 21.5572C6.44016 21.4734 6.47739 21.371 6.55652 21.3291ZM21.7945 18.3783L23.1955 19.1277C23.2793 19.1696 23.3863 19.1463 23.4235 19.0578C23.8098 18.1317 24.0239 17.1217 24.0332 16.0652C24.0705 11.6343 20.496 7.99934 16.0652 7.9621H15.9953C11.6017 7.9621 7.99468 11.5366 7.9621 15.9302C7.92487 20.361 11.4993 23.996 15.9302 24.0332H16C18.0991 24.0332 20.0166 23.2188 21.4501 21.8876C21.5199 21.8271 21.5339 21.7201 21.4688 21.6456L20.2726 20.5705C20.2028 20.51 20.1004 20.5193 20.0352 20.5798C18.9555 21.5339 17.5406 22.1157 15.9953 22.1157H15.9441C12.5698 22.0878 9.85173 19.3231 9.87965 15.9488C9.90758 12.6024 12.6489 9.88431 15.9953 9.88431H16.0465C19.4209 9.91224 22.139 12.6815 22.111 16.0512C22.1064 16.7866 21.9668 17.494 21.7154 18.1503C21.6828 18.2387 21.7154 18.3318 21.7945 18.3783ZM24.0891 4.58311C24.0146 4.53192 23.9122 4.54588 23.8564 4.625L22.9628 5.92354C22.9116 5.99801 22.9162 6.10506 22.9953 6.16091C26.0718 8.35306 28.0824 11.9461 28.0824 16.0047C28.0824 22.6649 22.6602 28.0824 16 28.0824C9.33976 28.0824 3.91755 22.6649 3.91755 16C3.92221 9.33511 9.33976 3.91756 16 3.92221C17.4521 3.92221 18.8391 4.18285 20.1283 4.65293C20.2121 4.68551 20.3052 4.64362 20.3424 4.55519L20.9056 3.07514C20.9382 2.99136 20.8963 2.89827 20.8172 2.86104C19.3138 2.30253 17.6941 2 16 2C8.28325 1.99535 2 8.27859 2 16C2 23.7214 8.27859 30 16 30C23.7214 30 30 23.7214 30 16C30 11.2899 27.6636 7.11968 24.0891 4.58311Z" fill="black"/>
</g>
<defs>
<clipPath id="clip0_287_5">
<rect width="32" height="32" fill="white"/>
</clipPath>
</defs>
</svg>
