<svg xmlns="http://www.w3.org/2000/svg" viewBox="55 55 160 170" role="img" fill-rule="evenodd">
  <title>Texas Instruments</title>
  <path fill="#CC0000" d="M199.21,105.72V87.94H170.7l-3.59,17.94h10.25l-3.29,16.48h-10.26l-3.56,17.87c-0.27,1.21-0.48,2.09-0.6,2.93c-0.84,5.46,1.55,5.2,9.22,5.2l-3.51,17.57h-13.42c-12.69,0-23-0.13-20.32-13.1c0.42-2.03,0.93-3.99,1.3-5.92l4.79-24.53h-9.86l3.3-16.48h9.85l3.59-17.94h-9.23V60.91h-34.13v55H60.43c1.01,14.26,13.63,16.33,18.23,26.46c3.17,6.98,5.94,19.25,15.19,19.37c7.09,0.09,7.09-9.17,16.21-9.17c9.12,0,13.16,17.32,21.27,31.57c6.08,11.21,16.18,18.71,25.32,19.34c7.51,0.52,11.14-2.03,11.14-2.03c-2.03-4.08-3.04-8.14-3.04-14.25c0-9.17,7.09-18.32,15.19-24.44c11.14-8.16,23.3-11.22,27.35-12.22v-28.52C207.31,122.02,199.21,117.68,199.21,105.72z M152.72,148.35l11.98-60.41h-13.81l-11.98,60.41H152.72z M168.41,68.85h-13.81l-2.64,13.33h13.81L168.41,68.85z"/>
</svg>
